<svg width="28" height="28" viewBox="0 0 28 28" fill="none" xmlns="http://www.w3.org/2000/svg">
<path d="M11.5626 14.0001L16.2759 18.7147C16.5188 18.9662 16.6532 19.303 16.6502 19.6526C16.6471 20.0022 16.5069 20.3366 16.2597 20.5838C16.0125 20.8311 15.678 20.9713 15.3285 20.9743C14.9789 20.9774 14.6421 20.843 14.3906 20.6001L8.73325 14.9427C8.48329 14.6927 8.34287 14.3536 8.34287 14.0001C8.34287 13.6465 8.48329 13.3075 8.73325 13.0574L14.3906 7.40008C14.6421 7.1572 14.9789 7.02281 15.3285 7.02585C15.678 7.02889 16.0125 7.16911 16.2597 7.41632C16.5069 7.66353 16.6471 7.99795 16.6502 8.34755C16.6532 8.69714 16.5188 9.03395 16.2759 9.28542L11.5626 14.0001ZM13.9999 27.3334C21.3639 27.3334 27.3333 21.3641 27.3333 14.0001C27.3333 6.63608 21.3639 0.666748 13.9999 0.666748C6.63592 0.666748 0.666584 6.63608 0.666584 14.0001C0.666584 21.3641 6.63592 27.3334 13.9999 27.3334Z" fill="#F8F2FF"/>
</svg>
