<svg width="28" height="28" viewBox="0 0 28 28" fill="none" xmlns="http://www.w3.org/2000/svg">
<path d="M16.4374 14.0001L11.7241 18.7147C11.4812 18.9662 11.3468 19.303 11.3498 19.6526C11.3529 20.0022 11.4931 20.3366 11.7403 20.5838C11.9875 20.8311 12.322 20.9713 12.6715 20.9743C13.0211 20.9774 13.3579 20.843 13.6094 20.6001L19.2667 14.9427C19.5167 14.6927 19.6571 14.3536 19.6571 14.0001C19.6571 13.6465 19.5167 13.3075 19.2667 13.0574L13.6094 7.40008C13.3579 7.1572 13.0211 7.02281 12.6715 7.02585C12.322 7.02889 11.9875 7.16911 11.7403 7.41632C11.4931 7.66353 11.3529 7.99795 11.3498 8.34755C11.3468 8.69714 11.4812 9.03395 11.7241 9.28542L16.4374 14.0001ZM14.0001 27.3334C6.63608 27.3334 0.666748 21.3641 0.666748 14.0001C0.666748 6.63608 6.63608 0.666748 14.0001 0.666748C21.3641 0.666748 27.3334 6.63608 27.3334 14.0001C27.3334 21.3641 21.3641 27.3334 14.0001 27.3334Z" fill="#8828FF"/>
</svg>
