<svg width="375" height="207" viewBox="0 0 375 207" fill="none" xmlns="http://www.w3.org/2000/svg">
<rect x="35.043" y="87.595" width="304.954" height="33.7396" rx="16.8698" stroke="#EEF6FE" stroke-width="3.89303"/>
<path d="M55.0349 129.283C54.7661 129.283 54.5483 129.501 54.5483 129.77C54.5483 130.039 54.7661 130.257 55.0349 130.257V129.283ZM50.5741 130.257C50.8429 130.257 51.0608 130.039 51.0608 129.77C51.0608 129.501 50.8429 129.283 50.5741 129.283V130.257ZM45.1017 129.074C44.8352 129.039 44.591 129.227 44.5562 129.493C44.5214 129.76 44.7093 130.004 44.9758 130.039L45.1017 129.074ZM38.471 128.299C38.7193 128.402 39.004 128.285 39.1069 128.036C39.2099 127.788 39.0921 127.503 38.8438 127.4L38.471 128.299ZM33.2352 124.156C33.0221 123.992 32.7166 124.032 32.5528 124.246C32.389 124.459 32.429 124.764 32.6421 124.928L33.2352 124.156ZM27.8812 120.167C28.0449 120.38 28.3504 120.42 28.5635 120.256C28.7766 120.093 28.8166 119.787 28.6529 119.574L27.8812 120.167ZM25.4087 113.965C25.3058 113.717 25.021 113.599 24.7728 113.702C24.5245 113.805 24.4067 114.09 24.5097 114.338L25.4087 113.965ZM22.7704 107.833C22.8052 108.1 23.0494 108.288 23.3159 108.253C23.5824 108.218 23.7702 107.974 23.7355 107.707L22.7704 107.833ZM23.7355 101.223C23.7702 100.957 23.5824 100.713 23.3159 100.678C23.0494 100.643 22.8052 100.831 22.7704 101.097L23.7355 101.223ZM24.5097 94.5926C24.4067 94.8409 24.5245 95.1256 24.7728 95.2285C25.021 95.3315 25.3058 95.2137 25.4087 94.9654L24.5097 94.5926ZM28.6529 89.3568C28.8166 89.1437 28.7766 88.8381 28.5635 88.6744C28.3504 88.5106 28.0449 88.5506 27.8812 88.7637L28.6529 89.3568ZM32.6421 84.0027C32.429 84.1665 32.389 84.472 32.5528 84.6851C32.7166 84.8982 33.0221 84.9382 33.2352 84.7745L32.6421 84.0027ZM38.8438 81.5303C39.0921 81.4273 39.2099 81.1426 39.1069 80.8944C39.004 80.6461 38.7193 80.5283 38.471 80.6313L38.8438 81.5303ZM44.9758 78.892C44.7093 78.9267 44.5214 79.171 44.5562 79.4375C44.5909 79.704 44.8352 79.8918 45.1017 79.8571L44.9758 78.892ZM51.9935 79.6473C52.2622 79.6473 52.4801 79.4294 52.4801 79.1606C52.4801 78.8919 52.2622 78.674 51.9935 78.674V79.6473ZM59.2929 78.674C59.0241 78.674 58.8063 78.8919 58.8063 79.1606C58.8063 79.4294 59.0241 79.6473 59.2929 79.6473V78.674ZM66.5923 79.6473C66.8611 79.6473 67.079 79.4294 67.079 79.1606C67.079 78.8919 66.8611 78.674 66.5923 78.674V79.6473ZM73.8918 78.674C73.623 78.674 73.4051 78.8919 73.4051 79.1606C73.4051 79.4294 73.623 79.6473 73.8918 79.6473V78.674ZM81.1912 79.6473C81.4599 79.6473 81.6778 79.4294 81.6778 79.1606C81.6778 78.8919 81.4599 78.674 81.1912 78.674V79.6473ZM88.4906 78.674C88.2218 78.674 88.004 78.8919 88.004 79.1606C88.004 79.4294 88.2218 79.6473 88.4906 79.6473V78.674ZM95.79 79.6473C96.0588 79.6473 96.2767 79.4294 96.2767 79.1606C96.2767 78.8919 96.0588 78.674 95.79 78.674V79.6473ZM103.089 78.674C102.821 78.674 102.603 78.8919 102.603 79.1606C102.603 79.4294 102.821 79.6473 103.089 79.6473V78.674ZM57.2653 129.283H55.0349V130.257H57.2653V129.283ZM50.5741 129.283H48.3438V130.257H50.5741V129.283ZM48.3438 129.283C47.2447 129.283 46.1626 129.212 45.1017 129.074L44.9758 130.039C46.0783 130.182 47.2025 130.257 48.3438 130.257V129.283ZM38.8438 127.4C36.8265 126.564 34.9431 125.469 33.2352 124.156L32.6421 124.928C34.4167 126.292 36.374 127.43 38.471 128.299L38.8438 127.4ZM28.6529 119.574C27.3404 117.866 26.2453 115.983 25.4087 113.965L24.5097 114.338C25.3793 116.435 26.5175 118.392 27.8812 120.167L28.6529 119.574ZM23.7355 107.707C23.5971 106.647 23.5257 105.564 23.5257 104.465H22.5524C22.5524 105.607 22.6266 106.731 22.7704 107.833L23.7355 107.707ZM23.5257 104.465C23.5257 103.366 23.5971 102.284 23.7355 101.223L22.7704 101.097C22.6266 102.2 22.5524 103.324 22.5524 104.465H23.5257ZM25.4087 94.9654C26.2453 92.948 27.3404 91.0647 28.6529 89.3568L27.8812 88.7637C26.5175 90.5383 25.3793 92.4956 24.5097 94.5926L25.4087 94.9654ZM33.2352 84.7745C34.9431 83.462 36.8264 82.3669 38.8438 81.5303L38.471 80.6313C36.374 81.5009 34.4167 82.639 32.6421 84.0027L33.2352 84.7745ZM45.1017 79.8571C46.1625 79.7187 47.2447 79.6473 48.3437 79.6473V78.674C47.2025 78.674 46.0783 78.7482 44.9758 78.892L45.1017 79.8571ZM48.3437 79.6473H51.9935V78.674H48.3437V79.6473ZM59.2929 79.6473H66.5923V78.674H59.2929V79.6473ZM73.8918 79.6473H81.1912V78.674H73.8918V79.6473ZM88.4906 79.6473H95.79V78.674H88.4906V79.6473ZM103.089 79.6473H106.739V78.674H103.089V79.6473ZM55.0349 128.797C54.4974 128.797 54.0616 129.233 54.0616 129.77C54.0616 130.308 54.4974 130.743 55.0349 130.743V128.797ZM50.5741 130.743C51.1117 130.743 51.5474 130.308 51.5474 129.77C51.5474 129.233 51.1117 128.797 50.5741 128.797V130.743ZM45.1646 128.591C44.6316 128.522 44.1432 128.897 44.0737 129.43C44.0041 129.963 44.3798 130.452 44.9128 130.521L45.1646 128.591ZM38.2846 128.749C38.7811 128.955 39.3506 128.719 39.5565 128.223C39.7624 127.726 39.5268 127.157 39.0302 126.951L38.2846 128.749ZM33.5317 123.77C33.1055 123.443 32.4945 123.523 32.1669 123.949C31.8394 124.375 31.9194 124.986 32.3456 125.314L33.5317 123.77ZM27.4953 120.463C27.8228 120.89 28.4339 120.97 28.8601 120.642C29.2863 120.315 29.3663 119.704 29.0387 119.277L27.4953 120.463ZM25.8582 113.779C25.6523 113.282 25.0829 113.047 24.5864 113.253C24.0899 113.459 23.8543 114.028 24.0602 114.524L25.8582 113.779ZM22.2879 107.896C22.3574 108.429 22.8458 108.805 23.3788 108.735C23.9118 108.666 24.2876 108.177 24.218 107.644L22.2879 107.896ZM24.218 101.286C24.2876 100.753 23.9118 100.265 23.3788 100.195C22.8458 100.126 22.3574 100.501 22.2879 101.034L24.218 101.286ZM24.0602 94.4062C23.8543 94.9027 24.0899 95.4721 24.5864 95.678C25.0829 95.8839 25.6523 95.6483 25.8582 95.1518L24.0602 94.4062ZM29.0387 89.6533C29.3663 89.2271 29.2863 88.616 28.8601 88.2885C28.4339 87.961 27.8228 88.041 27.4953 88.4672L29.0387 89.6533ZM32.3456 83.6169C31.9194 83.9444 31.8394 84.5554 32.1669 84.9816C32.4945 85.4078 33.1055 85.4878 33.5317 85.1603L32.3456 83.6169ZM39.0302 81.9798C39.5267 81.7739 39.7623 81.2045 39.5564 80.708C39.3505 80.2115 38.7811 79.9759 38.2846 80.1818L39.0302 81.9798ZM44.9128 78.4094C44.3798 78.479 44.0041 78.9674 44.0736 79.5004C44.1432 80.0334 44.6316 80.4091 45.1646 80.3396L44.9128 78.4094ZM51.9935 80.1339C52.531 80.1339 52.9667 79.6982 52.9667 79.1606C52.9667 78.6231 52.531 78.1874 51.9935 78.1874V80.1339ZM59.2929 78.1874C58.7554 78.1874 58.3196 78.6231 58.3196 79.1606C58.3196 79.6982 58.7554 80.1339 59.2929 80.1339V78.1874ZM66.5923 80.1339C67.1298 80.1339 67.5656 79.6982 67.5656 79.1606C67.5656 78.6231 67.1298 78.1874 66.5923 78.1874V80.1339ZM73.8918 78.1874C73.3542 78.1874 72.9185 78.6231 72.9185 79.1606C72.9185 79.6982 73.3542 80.1339 73.8918 80.1339V78.1874ZM81.1912 80.1339C81.7287 80.1339 82.1644 79.6982 82.1644 79.1606C82.1644 78.6231 81.7287 78.1874 81.1912 78.1874V80.1339ZM88.4906 78.1874C87.9531 78.1874 87.5173 78.6231 87.5173 79.1606C87.5173 79.6982 87.9531 80.1339 88.4906 80.1339V78.1874ZM95.79 80.1339C96.3276 80.1339 96.7633 79.6982 96.7633 79.1606C96.7633 78.6231 96.3276 78.1874 95.79 78.1874V80.1339ZM103.089 78.1874C102.552 78.1874 102.116 78.6231 102.116 79.1606C102.116 79.6982 102.552 80.1339 103.089 80.1339V78.1874ZM57.2653 128.797H55.0349V130.743H57.2653V128.797ZM50.5741 128.797H48.3438V130.743H50.5741V128.797ZM48.3438 128.797C47.2658 128.797 46.2047 128.727 45.1646 128.591L44.9128 130.521C46.0362 130.668 47.1814 130.743 48.3438 130.743V128.797ZM39.0302 126.951C37.0527 126.131 35.2063 125.057 33.5317 123.77L32.3456 125.314C34.1536 126.703 36.1478 127.863 38.2846 128.749L39.0302 126.951ZM29.0387 119.277C27.7519 117.603 26.6783 115.756 25.8582 113.779L24.0602 114.524C24.9463 116.661 26.106 118.656 27.4953 120.463L29.0387 119.277ZM24.218 107.644C24.0824 106.604 24.0123 105.543 24.0123 104.465H22.0658C22.0658 105.628 22.1413 106.773 22.2879 107.896L24.218 107.644ZM24.0123 104.465C24.0123 103.387 24.0824 102.326 24.218 101.286L22.2879 101.034C22.1413 102.158 22.0658 103.303 22.0658 104.465H24.0123ZM25.8582 95.1518C26.6783 93.1743 27.7519 91.3279 29.0387 89.6533L27.4953 88.4672C26.106 90.2751 24.9463 92.2693 24.0602 94.4062L25.8582 95.1518ZM33.5317 85.1603C35.2063 83.8735 37.0527 82.7999 39.0302 81.9798L38.2846 80.1818C36.1478 81.0679 34.1536 82.2276 32.3456 83.6169L33.5317 85.1603ZM45.1646 80.3396C46.2047 80.2039 47.2658 80.1339 48.3437 80.1339V78.1874C47.1814 78.1874 46.0362 78.2629 44.9128 78.4094L45.1646 80.3396ZM48.3437 80.1339H51.9935V78.1874H48.3437V80.1339ZM59.2929 80.1339H66.5923V78.1874H59.2929V80.1339ZM73.8918 80.1339H81.1912V78.1874H73.8918V80.1339ZM88.4906 80.1339H95.79V78.1874H88.4906V80.1339ZM103.089 80.1339H106.739V78.1874H103.089V80.1339Z" fill="url(#paint0_linear_26_460)"/>
<path d="M320.004 79.6468C320.273 79.6468 320.491 79.4289 320.491 79.1602C320.491 78.8914 320.273 78.6735 320.004 78.6735L320.004 79.6468ZM324.465 78.6735C324.196 78.6735 323.978 78.8914 323.978 79.1602C323.978 79.4289 324.196 79.6468 324.465 79.6468L324.465 78.6735ZM329.937 79.8566C330.204 79.8913 330.448 79.7035 330.483 79.437C330.518 79.1705 330.33 78.9263 330.063 78.8915L329.937 79.8566ZM336.568 80.6308C336.32 80.5278 336.035 80.6456 335.932 80.8939C335.829 81.1421 335.947 81.4269 336.195 81.5298L336.568 80.6308ZM341.804 84.774C342.017 84.9377 342.323 84.8977 342.486 84.6846C342.65 84.4715 342.61 84.166 342.397 84.0023L341.804 84.774ZM347.158 88.7632C346.994 88.5501 346.689 88.5101 346.476 88.6739C346.262 88.8377 346.222 89.1432 346.386 89.3563L347.158 88.7632ZM349.63 94.9649C349.733 95.2132 350.018 95.331 350.266 95.228C350.515 95.1251 350.632 94.8404 350.529 94.5921L349.63 94.9649ZM352.269 101.097C352.234 100.83 351.99 100.643 351.723 100.677C351.457 100.712 351.269 100.956 351.304 101.223L352.269 101.097ZM351.304 107.707C351.269 107.973 351.457 108.218 351.723 108.252C351.99 108.287 352.234 108.099 352.269 107.833L351.304 107.707ZM350.529 114.338C350.632 114.089 350.515 113.805 350.266 113.702C350.018 113.599 349.733 113.717 349.63 113.965L350.529 114.338ZM346.386 119.573C346.222 119.787 346.262 120.092 346.476 120.256C346.689 120.42 346.994 120.38 347.158 120.166L346.386 119.573ZM342.397 124.927C342.61 124.764 342.65 124.458 342.486 124.245C342.322 124.032 342.017 123.992 341.804 124.156L342.397 124.927ZM336.195 127.4C335.947 127.503 335.829 127.788 335.932 128.036C336.035 128.284 336.32 128.402 336.568 128.299L336.195 127.4ZM330.063 130.038C330.33 130.003 330.518 129.759 330.483 129.493C330.448 129.226 330.204 129.038 329.937 129.073L330.063 130.038ZM323.046 129.283C322.777 129.283 322.559 129.501 322.559 129.77C322.559 130.038 322.777 130.256 323.046 130.256L323.046 129.283ZM315.746 130.256C316.015 130.256 316.233 130.038 316.233 129.77C316.233 129.501 316.015 129.283 315.746 129.283L315.746 130.256ZM308.447 129.283C308.178 129.283 307.96 129.501 307.96 129.77C307.96 130.038 308.178 130.256 308.447 130.256L308.447 129.283ZM301.147 130.256C301.416 130.256 301.634 130.038 301.634 129.77C301.634 129.501 301.416 129.283 301.147 129.283L301.147 130.256ZM293.848 129.283C293.579 129.283 293.361 129.501 293.361 129.77C293.361 130.038 293.579 130.256 293.848 130.256L293.848 129.283ZM286.548 130.256C286.817 130.256 287.035 130.038 287.035 129.77C287.035 129.501 286.817 129.283 286.548 129.283L286.548 130.256ZM279.249 129.283C278.98 129.283 278.762 129.501 278.762 129.77C278.762 130.038 278.98 130.256 279.249 130.256L279.249 129.283ZM271.95 130.256C272.218 130.256 272.436 130.038 272.436 129.77C272.436 129.501 272.218 129.283 271.95 129.283L271.95 130.256ZM317.774 79.6468L320.004 79.6468L320.004 78.6735L317.774 78.6735L317.774 79.6468ZM324.465 79.6468L326.695 79.6468L326.695 78.6735L324.465 78.6735L324.465 79.6468ZM326.695 79.6468C327.794 79.6468 328.877 79.7182 329.937 79.8566L330.063 78.8915C328.961 78.7477 327.837 78.6735 326.695 78.6735L326.695 79.6468ZM336.195 81.5298C338.213 82.3664 340.096 83.4615 341.804 84.774L342.397 84.0023C340.622 82.6386 338.665 81.5004 336.568 80.6308L336.195 81.5298ZM346.386 89.3563C347.699 91.0642 348.794 92.9475 349.63 94.9649L350.529 94.5921C349.66 92.4951 348.522 90.5378 347.158 88.7632L346.386 89.3563ZM351.304 101.223C351.442 102.284 351.513 103.366 351.513 104.465L352.487 104.465C352.487 103.324 352.412 102.199 352.269 101.097L351.304 101.223ZM351.513 104.465C351.513 105.564 351.442 106.646 351.304 107.707L352.269 107.833C352.412 106.73 352.487 105.606 352.487 104.465L351.513 104.465ZM349.63 113.965C348.794 115.982 347.699 117.865 346.386 119.573L347.158 120.166C348.522 118.392 349.66 116.435 350.529 114.338L349.63 113.965ZM341.804 124.156C340.096 125.468 338.213 126.563 336.195 127.4L336.568 128.299C338.665 127.429 340.622 126.291 342.397 124.927L341.804 124.156ZM329.937 129.073C328.877 129.211 327.794 129.283 326.695 129.283L326.695 130.256C327.837 130.256 328.961 130.182 330.063 130.038L329.937 129.073ZM326.695 129.283L323.046 129.283L323.046 130.256L326.695 130.256L326.695 129.283ZM315.746 129.283L308.447 129.283L308.447 130.256L315.746 130.256L315.746 129.283ZM301.147 129.283L293.848 129.283L293.848 130.256L301.147 130.256L301.147 129.283ZM286.548 129.283L279.249 129.283L279.249 130.256L286.548 130.256L286.548 129.283ZM271.95 129.283L268.3 129.283L268.3 130.256L271.95 130.256L271.95 129.283ZM320.004 80.1334C320.542 80.1334 320.977 79.6977 320.977 79.1602C320.977 78.6226 320.542 78.1869 320.004 78.1869L320.004 80.1334ZM324.465 78.1869C323.927 78.1869 323.492 78.6226 323.492 79.1602C323.492 79.6977 323.927 80.1334 324.465 80.1334L324.465 78.1869ZM329.874 80.3391C330.407 80.4086 330.896 80.0329 330.965 79.4999C331.035 78.9669 330.659 78.4785 330.126 78.409L329.874 80.3391ZM336.754 80.1813C336.258 79.9754 335.689 80.211 335.483 80.7075C335.277 81.204 335.512 81.7734 336.009 81.9793L336.754 80.1813ZM341.507 85.1598C341.934 85.4874 342.545 85.4074 342.872 84.9812C343.2 84.5549 343.12 83.9439 342.693 83.6164L341.507 85.1598ZM347.544 88.4667C347.216 88.0405 346.605 87.9605 346.179 88.288C345.753 88.6156 345.673 89.2266 346 89.6528L347.544 88.4667ZM349.181 95.1513C349.387 95.6478 349.956 95.8834 350.453 95.6775C350.949 95.4716 351.185 94.9022 350.979 94.4057L349.181 95.1513ZM352.751 101.034C352.682 100.501 352.193 100.125 351.66 100.195C351.127 100.264 350.752 100.753 350.821 101.286L352.751 101.034ZM350.821 107.644C350.752 108.177 351.127 108.665 351.66 108.735C352.193 108.804 352.682 108.429 352.751 107.896L350.821 107.644ZM350.979 114.524C351.185 114.027 350.949 113.458 350.453 113.252C349.956 113.046 349.387 113.282 349.181 113.778L350.979 114.524ZM346 119.277C345.673 119.703 345.753 120.314 346.179 120.642C346.605 120.969 347.216 120.889 347.544 120.463L346 119.277ZM342.693 125.313C343.12 124.986 343.2 124.375 342.872 123.949C342.545 123.522 341.934 123.442 341.507 123.77L342.693 125.313ZM336.009 126.95C335.512 127.156 335.277 127.726 335.483 128.222C335.689 128.719 336.258 128.954 336.754 128.748L336.009 126.95ZM330.126 130.521C330.659 130.451 331.035 129.963 330.965 129.43C330.896 128.897 330.407 128.521 329.874 128.591L330.126 130.521ZM323.046 128.796C322.508 128.796 322.072 129.232 322.072 129.77C322.072 130.307 322.508 130.743 323.046 130.743L323.046 128.796ZM315.746 130.743C316.284 130.743 316.719 130.307 316.719 129.77C316.719 129.232 316.284 128.796 315.746 128.796L315.746 130.743ZM308.447 128.796C307.909 128.796 307.473 129.232 307.473 129.77C307.473 130.307 307.909 130.743 308.447 130.743L308.447 128.796ZM301.147 130.743C301.685 130.743 302.121 130.307 302.121 129.77C302.121 129.232 301.685 128.796 301.147 128.796L301.147 130.743ZM293.848 128.796C293.31 128.796 292.875 129.232 292.875 129.77C292.875 130.307 293.31 130.743 293.848 130.743L293.848 128.796ZM286.548 130.743C287.086 130.743 287.522 130.307 287.522 129.77C287.522 129.232 287.086 128.796 286.548 128.796L286.548 130.743ZM279.249 128.796C278.712 128.796 278.276 129.232 278.276 129.77C278.276 130.307 278.712 130.743 279.249 130.743L279.249 128.796ZM271.95 130.743C272.487 130.743 272.923 130.307 272.923 129.77C272.923 129.232 272.487 128.796 271.95 128.796L271.95 130.743ZM317.774 80.1334L320.004 80.1334L320.004 78.1869L317.774 78.1869L317.774 80.1334ZM324.465 80.1334L326.695 80.1334L326.695 78.1869L324.465 78.1869L324.465 80.1334ZM326.695 80.1334C327.773 80.1334 328.834 80.2035 329.874 80.3391L330.126 78.409C329.003 78.2624 327.858 78.1869 326.695 78.1869L326.695 80.1334ZM336.009 81.9793C337.986 82.7994 339.833 83.873 341.507 85.1598L342.693 83.6164C340.886 82.2271 338.891 81.0674 336.754 80.1813L336.009 81.9793ZM346 89.6528C347.287 91.3274 348.361 93.1738 349.181 95.1513L350.979 94.4057C350.093 92.2688 348.933 90.2746 347.544 88.4667L346 89.6528ZM350.821 101.286C350.957 102.326 351.027 103.387 351.027 104.465L352.973 104.465C352.973 103.302 352.898 102.157 352.751 101.034L350.821 101.286ZM351.027 104.465C351.027 105.543 350.957 106.604 350.821 107.644L352.751 107.896C352.898 106.772 352.973 105.627 352.973 104.465L351.027 104.465ZM349.181 113.778C348.361 115.756 347.287 117.602 346 119.277L347.544 120.463C348.933 118.655 350.093 116.661 350.979 114.524L349.181 113.778ZM341.507 123.77C339.833 125.057 337.986 126.13 336.009 126.95L336.754 128.748C338.891 127.862 340.886 126.703 342.693 125.313L341.507 123.77ZM329.874 128.591C328.834 128.726 327.773 128.796 326.695 128.796L326.695 130.743C327.858 130.743 329.003 130.667 330.126 130.521L329.874 128.591ZM326.695 128.796L323.046 128.796L323.046 130.743L326.695 130.743L326.695 128.796ZM315.746 128.796L308.447 128.796L308.447 130.743L315.746 130.743L315.746 128.796ZM301.147 128.796L293.848 128.796L293.848 130.743L301.147 130.743L301.147 128.796ZM286.548 128.796L279.249 128.796L279.249 130.743L286.548 130.743L286.548 128.796ZM271.95 128.796L268.3 128.796L268.3 130.743L271.95 130.743L271.95 128.796Z" fill="url(#paint1_linear_26_460)"/>
<g opacity="0.5" filter="url(#filter0_f_26_460)">
<ellipse cx="183.139" cy="93.7595" rx="57.26" ry="32.7663" fill="#7718ED" fill-opacity="0.17"/>
</g>
<g filter="url(#filter1_d_26_460)">
<circle cx="57.1022" cy="123.282" r="18.8163" fill="white"/>
</g>
<circle cx="57.1007" cy="123.281" r="10.7869" fill="#FF3366"/>
<path d="M53.5252 119.32C54.2699 119.32 54.8735 118.716 54.8735 117.971C54.8735 117.227 54.2699 116.623 53.5252 116.623C52.7805 116.623 52.1768 117.227 52.1768 117.971C52.1768 118.716 52.7805 119.32 53.5252 119.32Z" fill="white"/>
<path d="M50.708 120.476L50.2385 122.197H51.7795C51.4705 123.453 50.8236 126.095 50.708 126.615C50.5636 127.266 50.5395 129.12 52.4898 129.12C53.8511 129.12 54.7194 128.24 55.2037 127.522L54.8374 128.987H57.0285L58.1722 124.358C58.3347 123.588 58.7173 122.101 60.0985 122.101C61.7411 122.101 61.1385 124.046 60.8431 124.999C60.8311 125.038 60.8196 125.075 60.8088 125.111C60.5872 125.833 60.3513 126.676 60.3513 127.253C60.3513 127.904 60.6523 129.12 62.3377 129.12C64.0232 129.12 64.7415 127.45 64.89 126.615L64.0352 126.266C63.975 126.712 63.4333 127.675 62.9276 127.675C62.2354 127.675 62.5831 126.508 62.9542 125.262C63.1188 124.71 63.288 124.142 63.3731 123.654C63.5882 122.419 63.3731 120.319 61.2301 120.319C59.8992 120.319 58.8541 121.505 58.3569 122.328L58.7742 120.476H55.4394L54.9819 122.197H56.5349C56.5349 122.197 55.6133 125.953 55.5537 126.071C54.9277 127.308 53.9809 127.723 53.2724 127.675C52.7041 127.636 52.7707 126.952 52.8751 126.615L54.4161 120.476H50.708Z" fill="white"/>
<g filter="url(#filter2_d_26_460)">
<circle cx="161.566" cy="123.282" r="18.8163" fill="white"/>
</g>
<circle cx="161.565" cy="123.281" r="10.7869" fill="#FF5502"/>
<path d="M167.675 127.133H161.368V119.513C161.952 118.979 162.709 118.657 163.536 118.657C165.366 118.657 166.853 120.234 166.886 122.193C167.133 122.099 167.398 122.048 167.675 122.048C168.981 122.048 170.04 123.186 170.04 124.59C170.04 125.995 168.981 127.133 167.675 127.133Z" fill="white"/>
<path d="M160.794 120.198H160.024V127.133H160.794V120.198Z" fill="white"/>
<path d="M158.483 120.969H159.253V127.133H158.483V120.969Z" fill="white"/>
<path d="M157.712 122.51H156.942V127.133H157.712V122.51Z" fill="white"/>
<path d="M155.401 121.739H156.171V127.133H155.401V121.739Z" fill="white"/>
<path d="M154.63 123.28H153.86V127.133H154.63V123.28Z" fill="white"/>
<g filter="url(#filter3_d_26_460)">
<circle cx="213.797" cy="89.8656" r="18.8163" fill="white"/>
</g>
<path d="M213.797 79.0789C207.847 79.0789 203.01 83.9161 203.01 89.8658C203.01 95.8155 207.847 100.653 213.797 100.653C219.746 100.653 224.584 95.8155 224.584 89.8658C224.584 83.9161 219.746 79.0789 213.797 79.0789Z" fill="#FF5A5F"/>
<path d="M213.797 92.7064C213.089 91.8169 212.673 91.0371 212.535 90.3699C212.396 89.8278 212.451 89.3969 212.687 89.0772C212.937 88.702 213.311 88.5213 213.797 88.5213C214.282 88.5213 214.656 88.702 214.906 89.0772C215.142 89.3969 215.197 89.8278 215.058 90.3699C214.906 91.051 214.49 91.8294 213.797 92.7064ZM217.668 94.7636C216.489 95.2779 215.323 94.4578 214.325 93.3458C215.976 91.2734 216.281 89.661 215.573 88.6172C215.157 88.0195 214.561 87.7276 213.797 87.7276C212.257 87.7276 211.41 89.0342 211.743 90.5506C211.937 91.3707 212.45 92.3034 213.268 93.3458C212.655 94.0274 211.849 94.8006 210.883 94.8887C209.483 95.0972 208.386 93.735 208.885 92.3298L212.436 84.9602C212.739 84.4061 213.113 83.9316 213.795 83.9316C214.294 83.9316 214.683 84.2235 214.849 84.4598L218.705 92.3298C219.083 93.2807 218.604 94.3585 217.668 94.7636ZM219.457 92.0518L216.155 85.1687C215.531 83.8899 215.088 83.124 213.797 83.124C212.521 83.124 211.979 84.0136 211.424 85.1687L208.136 92.0518C207.429 93.9991 208.885 95.7088 210.647 95.7088C210.758 95.7088 210.868 95.6949 210.98 95.6949C211.895 95.5837 212.84 94.9999 213.797 93.956C214.753 94.9985 215.698 95.5837 216.613 95.6949C216.725 95.6949 216.835 95.7088 216.946 95.7088C218.708 95.7102 220.164 93.9991 219.457 92.0518Z" fill="white"/>
<g filter="url(#filter4_d_26_460)">
<circle cx="109.334" cy="89.8656" r="18.8163" fill="white"/>
</g>
<path fill-rule="evenodd" clip-rule="evenodd" d="M109.333 100.653C115.291 100.653 120.12 95.8232 120.12 89.8658C120.12 83.9083 115.291 79.0789 109.333 79.0789C103.376 79.0789 98.5461 83.9083 98.5461 89.8658C98.5461 95.8232 103.376 100.653 109.333 100.653Z" fill="#2BDE73"/>
<path fill-rule="evenodd" clip-rule="evenodd" d="M108.067 87.9032L110.397 84.6276C110.838 84.0105 111.406 83.7019 112.103 83.7019C112.672 83.7019 113.164 83.8977 113.58 84.2893C113.996 84.681 114.204 85.1497 114.204 85.6957C114.204 86.0992 114.094 86.4553 113.874 86.7639L111.773 89.7279L114.341 92.8879C114.598 93.2024 114.727 93.5704 114.727 93.9916C114.727 94.5496 114.525 95.0285 114.121 95.429C113.718 95.8297 113.228 96.0298 112.654 96.0298C112.024 96.0298 111.544 95.8312 111.213 95.4335L108.067 91.6239V93.7247C108.067 94.3241 107.96 94.7898 107.746 95.1221C107.355 95.7272 106.786 96.0298 106.04 96.0298C105.361 96.0298 104.835 95.8073 104.462 95.3623C104.114 94.9528 103.94 94.4097 103.94 93.7336V85.9449C103.94 85.304 104.117 84.7761 104.472 84.3606C104.845 83.9216 105.358 83.7019 106.013 83.7019C106.636 83.7019 107.156 83.9216 107.572 84.3606C107.804 84.6038 107.951 84.8501 108.012 85.0994C108.049 85.2538 108.067 85.5414 108.067 85.9628V87.9032Z" fill="white"/>
<g filter="url(#filter5_d_26_460)">
<circle cx="265.704" cy="123.282" r="18.8163" fill="white"/>
</g>
<rect x="254.915" y="112.494" width="21.5739" height="21.5739" rx="10.7869" fill="#1275B1"/>
<path d="M263.097 118.42C263.097 119.141 262.473 119.724 261.703 119.724C260.933 119.724 260.309 119.141 260.309 118.42C260.309 117.7 260.933 117.117 261.703 117.117C262.473 117.117 263.097 117.7 263.097 118.42Z" fill="white"/>
<path d="M260.499 120.683H262.882V127.904H260.499V120.683Z" fill="white"/>
<path d="M266.719 120.683H264.336V127.904H266.719C266.719 127.904 266.719 125.63 266.719 124.209C266.719 123.356 267.01 122.499 268.173 122.499C269.486 122.499 269.478 123.615 269.472 124.48C269.464 125.611 269.483 126.765 269.483 127.904H271.866V124.093C271.846 121.659 271.212 120.538 269.126 120.538C267.887 120.538 267.119 121.1 266.719 121.609V120.683Z" fill="white"/>
<g filter="url(#filter6_d_26_460)">
<circle cx="317.935" cy="89.8666" r="18.8163" fill="white"/>
</g>
<path d="M317.935 79.0796C311.985 79.0796 307.148 83.9169 307.148 89.8665C307.148 95.8162 311.985 100.653 317.935 100.653C323.885 100.653 328.722 95.8162 328.722 89.8665C328.722 83.9169 323.885 79.0796 317.935 79.0796Z" fill="url(#paint2_radial_26_460)"/>
<path fill-rule="evenodd" clip-rule="evenodd" d="M315.774 88.6799C315.76 88.6847 315.745 88.6803 315.736 88.6694C315.317 88.1175 315.211 87.1688 315.186 86.8043C315.18 86.7342 315.101 86.6947 315.037 86.73C313.743 87.4529 312.542 89.1631 312.542 90.8142C312.542 93.6508 314.523 96.0305 317.935 96.0305C321.131 96.0305 323.328 93.5778 323.328 90.8145C323.328 87.1988 320.729 84.7964 318.414 83.7104C318.36 83.685 318.288 83.7373 318.296 83.7963C318.594 85.7449 318.183 87.8641 315.774 88.6799Z" fill="white"/>
<defs>
<filter id="filter0_f_26_460" x="65.2128" y="0.326801" width="235.853" height="186.865" filterUnits="userSpaceOnUse" color-interpolation-filters="sRGB">
<feFlood flood-opacity="0" result="BackgroundImageFix"/>
<feBlend mode="normal" in="SourceGraphic" in2="BackgroundImageFix" result="shape"/>
<feGaussianBlur stdDeviation="30.3332" result="effect1_foregroundBlur_26_460"/>
</filter>
<filter id="filter1_d_26_460" x="-14.694" y="62.5148" width="143.592" height="143.592" filterUnits="userSpaceOnUse" color-interpolation-filters="sRGB">
<feFlood flood-opacity="0" result="BackgroundImageFix"/>
<feColorMatrix in="SourceAlpha" type="matrix" values="0 0 0 0 0 0 0 0 0 0 0 0 0 0 0 0 0 0 127 0" result="hardAlpha"/>
<feOffset dy="11.0289"/>
<feGaussianBlur stdDeviation="26.4899"/>
<feColorMatrix type="matrix" values="0 0 0 0 0.0666667 0 0 0 0 0.145098 0 0 0 0 0.243137 0 0 0 0.16 0"/>
<feBlend mode="normal" in2="BackgroundImageFix" result="effect1_dropShadow_26_460"/>
<feBlend mode="normal" in="SourceGraphic" in2="effect1_dropShadow_26_460" result="shape"/>
</filter>
<filter id="filter2_d_26_460" x="89.7694" y="62.5148" width="143.592" height="143.592" filterUnits="userSpaceOnUse" color-interpolation-filters="sRGB">
<feFlood flood-opacity="0" result="BackgroundImageFix"/>
<feColorMatrix in="SourceAlpha" type="matrix" values="0 0 0 0 0 0 0 0 0 0 0 0 0 0 0 0 0 0 127 0" result="hardAlpha"/>
<feOffset dy="11.0289"/>
<feGaussianBlur stdDeviation="26.4899"/>
<feColorMatrix type="matrix" values="0 0 0 0 0.0666667 0 0 0 0 0.145098 0 0 0 0 0.243137 0 0 0 0.16 0"/>
<feBlend mode="normal" in2="BackgroundImageFix" result="effect1_dropShadow_26_460"/>
<feBlend mode="normal" in="SourceGraphic" in2="effect1_dropShadow_26_460" result="shape"/>
</filter>
<filter id="filter3_d_26_460" x="142.001" y="29.0983" width="143.592" height="143.592" filterUnits="userSpaceOnUse" color-interpolation-filters="sRGB">
<feFlood flood-opacity="0" result="BackgroundImageFix"/>
<feColorMatrix in="SourceAlpha" type="matrix" values="0 0 0 0 0 0 0 0 0 0 0 0 0 0 0 0 0 0 127 0" result="hardAlpha"/>
<feOffset dy="11.0289"/>
<feGaussianBlur stdDeviation="26.4899"/>
<feColorMatrix type="matrix" values="0 0 0 0 0.0666667 0 0 0 0 0.145098 0 0 0 0 0.243137 0 0 0 0.16 0"/>
<feBlend mode="normal" in2="BackgroundImageFix" result="effect1_dropShadow_26_460"/>
<feBlend mode="normal" in="SourceGraphic" in2="effect1_dropShadow_26_460" result="shape"/>
</filter>
<filter id="filter4_d_26_460" x="37.538" y="29.0983" width="143.592" height="143.592" filterUnits="userSpaceOnUse" color-interpolation-filters="sRGB">
<feFlood flood-opacity="0" result="BackgroundImageFix"/>
<feColorMatrix in="SourceAlpha" type="matrix" values="0 0 0 0 0 0 0 0 0 0 0 0 0 0 0 0 0 0 127 0" result="hardAlpha"/>
<feOffset dy="11.0289"/>
<feGaussianBlur stdDeviation="26.4899"/>
<feColorMatrix type="matrix" values="0 0 0 0 0.0666667 0 0 0 0 0.145098 0 0 0 0 0.243137 0 0 0 0.16 0"/>
<feBlend mode="normal" in2="BackgroundImageFix" result="effect1_dropShadow_26_460"/>
<feBlend mode="normal" in="SourceGraphic" in2="effect1_dropShadow_26_460" result="shape"/>
</filter>
<filter id="filter5_d_26_460" x="193.908" y="62.5148" width="143.592" height="143.592" filterUnits="userSpaceOnUse" color-interpolation-filters="sRGB">
<feFlood flood-opacity="0" result="BackgroundImageFix"/>
<feColorMatrix in="SourceAlpha" type="matrix" values="0 0 0 0 0 0 0 0 0 0 0 0 0 0 0 0 0 0 127 0" result="hardAlpha"/>
<feOffset dy="11.0289"/>
<feGaussianBlur stdDeviation="26.4899"/>
<feColorMatrix type="matrix" values="0 0 0 0 0.0666667 0 0 0 0 0.145098 0 0 0 0 0.243137 0 0 0 0.16 0"/>
<feBlend mode="normal" in2="BackgroundImageFix" result="effect1_dropShadow_26_460"/>
<feBlend mode="normal" in="SourceGraphic" in2="effect1_dropShadow_26_460" result="shape"/>
</filter>
<filter id="filter6_d_26_460" x="246.139" y="29.0993" width="143.592" height="143.592" filterUnits="userSpaceOnUse" color-interpolation-filters="sRGB">
<feFlood flood-opacity="0" result="BackgroundImageFix"/>
<feColorMatrix in="SourceAlpha" type="matrix" values="0 0 0 0 0 0 0 0 0 0 0 0 0 0 0 0 0 0 127 0" result="hardAlpha"/>
<feOffset dy="11.0289"/>
<feGaussianBlur stdDeviation="26.4899"/>
<feColorMatrix type="matrix" values="0 0 0 0 0.0666667 0 0 0 0 0.145098 0 0 0 0 0.243137 0 0 0 0.16 0"/>
<feBlend mode="normal" in2="BackgroundImageFix" result="effect1_dropShadow_26_460"/>
<feBlend mode="normal" in="SourceGraphic" in2="effect1_dropShadow_26_460" result="shape"/>
</filter>
<linearGradient id="paint0_linear_26_460" x1="64.8891" y1="79.1606" x2="64.8891" y2="129.77" gradientUnits="userSpaceOnUse">
<stop stop-color="#762AD6"/>
<stop offset="0.515625" stop-color="#D477AF"/>
<stop offset="0.979167" stop-color="#FFD9DD"/>
</linearGradient>
<linearGradient id="paint1_linear_26_460" x1="310.15" y1="129.77" x2="310.15" y2="79.1602" gradientUnits="userSpaceOnUse">
<stop stop-color="#762AD6"/>
<stop offset="0.515625" stop-color="#D477AF"/>
<stop offset="0.979167" stop-color="#FFD9DD"/>
</linearGradient>
<radialGradient id="paint2_radial_26_460" cx="0" cy="0" r="1" gradientUnits="userSpaceOnUse" gradientTransform="translate(317.935 100.653) scale(23.048)">
<stop stop-color="#FF7854"/>
<stop offset="1" stop-color="#FD267D"/>
</radialGradient>
</defs>
</svg>
